<?xml version="1.0" standalone="no"?>
<!DOCTYPE svg PUBLIC "-//W3C//DTD SVG 1.1//EN" "http://www.w3.org/Graphics/SVG/1.1/DTD/svg11.dtd" >
<svg>
<metadata>
Created by FontForge 20090914 at Sat Oct 16 19:54:11 2021
 By www-data
Copyright chrisdaboss 2009
</metadata>
<defs>
<font id="Cyber" horiz-adv-x="512" >
  <font-face 
    font-family="Cyber"
    font-weight="400"
    font-stretch="normal"
    units-per-em="1024"
    panose-1="0 0 4 0 0 0 0 0 0 0"
    ascent="819"
    descent="-205"
    x-height="640"
    cap-height="640"
    bbox="0 -64 1408 896"
    underline-thickness="51"
    underline-position="126"
    unicode-range="U+000D-U+00FC"
  />
<missing-glyph horiz-adv-x="1408" 
d="M448 127v142h-143v-142h143zM590 293v143h-285v-143h285zM448 459v143h-143v-143h143zM590 626v141h-142c-40 0 -73.667 -13.667 -101 -41c-28 -28 -42 -61.333 -42 -100h285zM0 0v896h896v-896h-896z" />
    <glyph glyph-name=".notdef" horiz-adv-x="1408" 
d="M448 127v142h-143v-142h143zM590 293v143h-285v-143h285zM448 459v143h-143v-143h143zM590 626v141h-142c-40 0 -73.667 -13.667 -101 -41c-28 -28 -42 -61.333 -42 -100h285zM0 0v896h896v-896h-896z" />
    <glyph glyph-name="glyph1" horiz-adv-x="0" 
 />
    <glyph glyph-name="glyph1" horiz-adv-x="0" 
 />
    <glyph glyph-name="uni000D" unicode="&#xd;" horiz-adv-x="0" 
 />
    <glyph glyph-name="space" unicode=" " horiz-adv-x="384" 
 />
    <glyph glyph-name="exclam" unicode="!" horiz-adv-x="256" 
d="M0 0v128h128v-128h-128zM0 256v128h128v-128h-128zM0 448v192h128v-192h-128z" />
    <glyph glyph-name="comma" unicode="," horiz-adv-x="256" 
d="M64 -64v64h-64v128h128v-192h-64z" />
    <glyph glyph-name="period" unicode="." horiz-adv-x="256" 
d="M0 0v128h128v-128h-128z" />
    <glyph glyph-name="zero" unicode="0" horiz-adv-x="640" 
d="M384 128v384h-256v-384h256zM128 0c-36 0 -66.333 12.333 -91 37s-37 55 -37 91v384c-0 35.333 12.333 65.333 37 90c24.667 25.333 55 38 91 38h256c35.333 0 65.333 -12.667 90 -38c25.333 -24.667 38 -54.667 38 -90v-384c0 -36 -12.667 -66.333 -38 -91
c-24.667 -24.667 -54.667 -37 -90 -37h-256z" />
    <glyph glyph-name="one" unicode="1" horiz-adv-x="320" 
d="M64 0v512h-64v128h192v-640h-128z" />
    <glyph glyph-name="two" unicode="2" 
d="M0 448v192h128v-192h-128zM0 0l64 128l64 128l64 128l64 128h-64v128h192v-128l-64 -128l-64 -128l-64 -128h192v-128h-384z" />
    <glyph glyph-name="three" unicode="3" 
d="M0 0v128h256v128h128v-256h-384zM0 256v128h256v-128h-256zM256 384v128h-256v128h384v-256h-128z" />
    <glyph glyph-name="four" unicode="4" horiz-adv-x="576" 
d="M256 0v128h128v-128h-128zM384 128v128h64v-128h-64zM0 128v128l64 128l64 128l64 128h192v-384h-128v256l-64 -128l-64 -128h128v-128h-256z" />
    <glyph glyph-name="five" unicode="5" 
d="M0 0v128h256v128h-256v384h384v-128h-256v-128h128c35.333 0 65.333 -12.667 90 -38c25.333 -24.667 38 -54.667 38 -90v-128c0 -36 -12.667 -66.333 -38 -91c-24.667 -24.667 -54.667 -37 -90 -37h-256z" />
    <glyph glyph-name="six" unicode="6" 
d="M128 0c-36 0 -66.333 12.333 -91 37s-37 55 -37 91v384c-0 35.333 12.333 65.333 37 90c24.667 25.333 55 38 91 38h256v-128h-256v-128h128c35.333 0 65.333 -12.667 90 -38c25.333 -24.667 38 -54.667 38 -90h-256v-128h128v64h128v-64c0 -36 -12.667 -66.333 -38 -91
c-24.667 -24.667 -54.667 -37 -90 -37h-128z" />
    <glyph glyph-name="seven" unicode="7" 
d="M0 512v128h128v-128h-128zM0 0l64 128l64 128l64 128l64 128h-64v128h192v-128l-64 -128l-64 -128l-64 -128l-64 -128h-128z" />
    <glyph glyph-name="eight" unicode="8" 
d="M256 128v384h-128v-128h64v-128h-64v-128h128zM128 0c-36 0 -66.333 12.333 -91 37s-37 55 -37 91v128c0 17.333 6 32.333 18 45c12.667 12.667 28 19 46 19c-18 0 -33.333 6 -46 18c-12 12.667 -18 28 -18 46v128c-0 35.333 12.333 65.333 37 90
c24.667 25.333 55 38 91 38h128c35.333 0 65.333 -12.667 90 -38c25.333 -24.667 38 -54.667 38 -90v-128c0 -18 -6.33301 -33.333 -19 -46c-12.667 -12 -27.667 -18 -45 -18c17.333 0 32.333 -6.33301 45 -19s19 -27.667 19 -45v-128c0 -36 -12.667 -66.333 -38 -91
c-24.667 -24.667 -54.667 -37 -90 -37h-128z" />
    <glyph glyph-name="nine" unicode="9" 
d="M0 0v128h256v128h-128c-36 0 -66.333 12.333 -91 37s-37 55 -37 91v128c-0 35.333 12.333 65.333 37 90c24.667 25.333 55 38 91 38h64v-128h-64v-128h128v256c35.333 0 65.333 -12.667 90 -38c25.333 -24.667 38 -54.667 38 -90v-384c0 -36 -12.667 -66.333 -38 -91
c-24.667 -24.667 -54.667 -37 -90 -37h-256z" />
    <glyph glyph-name="question" unicode="?" 
d="M128 0v128h128v-128h-128zM128 256c-36 0 -66.333 12.333 -91 37s-37 55 -37 91v128c-0 35.333 12.333 65.333 37 90c24.667 25.333 55 38 91 38v-256h256v-128h-256zM192 512v128h64v128h-256v128h256c35.333 0 65.333 -12.667 90 -38c25.333 -24.667 38 -54.667 38 -90
v-128c0 -36 -12.667 -66.333 -38 -91c-24.667 -24.667 -54.667 -37 -90 -37h-64z" />
    <glyph glyph-name="A" unicode="A" horiz-adv-x="896" 
d="M320 128v128h128v-128h-128zM0 0l64 128l64 128l64 128l64 128l64 128h128l64 -128l64 -128l64 -128l64 -128l64 -128h-128l-64 128l-64 128l-64 128l-64 128l-64 -128l-64 -128l-64 -128l-64 -128h-128z" />
    <glyph glyph-name="B" unicode="B" horiz-adv-x="640" 
d="M384 128v384h-256v-128h192v-128h-192v-128h256zM0 0v640h384c35.333 0 65.333 -12.667 90 -38c25.333 -24.667 38 -54.667 38 -90v-128c0 -18 -6.33301 -33.333 -19 -46c-12.667 -12 -27.667 -18 -45 -18c17.333 0 32.333 -6.33301 45 -19s19 -27.667 19 -45v-128
c0 -36 -12.667 -66.333 -38 -91c-24.667 -24.667 -54.667 -37 -90 -37h-384z" />
    <glyph glyph-name="C" unicode="C" 
d="M128 0c-36 0 -66.333 12.333 -91 37s-37 55 -37 91v128h128v-128h256v-128h-256zM0 384v128c-0 35.333 12.333 65.333 37 90c24.667 25.333 55 38 91 38h256v-128h-256v-128h-128z" />
    <glyph glyph-name="D" unicode="D" 
d="M256 128v384h-128v-384h128zM0 0v640h256c35.333 0 65.333 -12.667 90 -38c25.333 -24.667 38 -54.667 38 -90v-384c0 -36 -12.667 -66.333 -38 -91c-24.667 -24.667 -54.667 -37 -90 -37h-256z" />
    <glyph glyph-name="E" unicode="E" 
d="M0 0v256h128v-128h256v-128h-384zM128 256v128h256v-128h-256zM0 384v256h384v-128h-256v-128h-128z" />
    <glyph glyph-name="F" unicode="F" 
d="M192 256v128h192v-128h-192zM0 0v640h384v-128h-256v-512h-128z" />
    <glyph glyph-name="G" unicode="G" horiz-adv-x="640" 
d="M384 192v64h-128v128h256v-192h-128zM128 0c-36 0 -66.333 12.333 -91 37s-37 55 -37 91v384c-0 35.333 12.333 65.333 37 90c24.667 25.333 55 38 91 38h384v-128h-384v-384h384c0 -36 -12.667 -66.333 -38 -91c-24.667 -24.667 -54.667 -37 -90 -37h-256z" />
    <glyph glyph-name="H" unicode="H" horiz-adv-x="640" 
d="M0 0v640h128v-256h192v-128h-192v-256h-128zM384 0v640h128v-640h-128z" />
    <glyph glyph-name="I" unicode="I" horiz-adv-x="256" 
d="M0 0v640h128v-640h-128z" />
    <glyph glyph-name="J" unicode="J" 
d="M128 0c-36 0 -66.333 12.333 -91 37s-37 55 -37 91v128h128v-128h128v192h128v-192c0 -36 -12.667 -66.333 -38 -91c-24.667 -24.667 -54.667 -37 -90 -37h-128zM256 384v128h-256v128h256c35.333 0 65.333 -12.667 90 -38c25.333 -24.667 38 -54.667 38 -90v-128h-128z
" />
    <glyph glyph-name="K" unicode="K" 
d="M0 0v256h128v-256h-128zM256 0l-64 128l-64 128h128l64 -128l64 -128h-128zM0 384v256h128v-256h-128zM128 384l64 128l64 128h128l-64 -128l-64 -128h-128z" />
    <glyph glyph-name="L" unicode="L" 
d="M0 0v640h128v-512h256v-128h-384z" />
    <glyph glyph-name="M" unicode="M" horiz-adv-x="1152" 
d="M0 0v640h128v-640h-128zM448 128l-64 128l-64 128l-64 128h-64v128h128l64 -128l64 -128l64 -128l64 128l64 128l64 128h128v-128h-64l-64 -128l-64 -128l-64 -128h-128zM896 0v640h128v-640h-128z" />
    <glyph glyph-name="N" unicode="N" horiz-adv-x="768" 
d="M0 0v640h192l64 -128l64 -128l64 -128h64v-256h-64l-64 128l-64 128l-64 128l-64 128v-512h-128zM512 0v640h128v-640h-128z" />
    <glyph glyph-name="O" unicode="O" horiz-adv-x="640" 
d="M384 128v384h-256v-384h256zM128 0c-36 0 -66.333 12.333 -91 37s-37 55 -37 91v384c-0 35.333 12.333 65.333 37 90c24.667 25.333 55 38 91 38h256c35.333 0 65.333 -12.667 90 -38c25.333 -24.667 38 -54.667 38 -90v-384c0 -36 -12.667 -66.333 -38 -91
c-24.667 -24.667 -54.667 -37 -90 -37h-256z" />
    <glyph glyph-name="P" unicode="P" 
d="M0 0v256h128v-256h-128zM128 256v128h128v128h-128v-128h-128v256h256c35.333 0 65.333 -12.667 90 -38c25.333 -24.667 38 -54.667 38 -90v-128c0 -36 -12.667 -66.333 -38 -91c-24.667 -24.667 -54.667 -37 -90 -37h-128z" />
    <glyph glyph-name="Q" unicode="Q" horiz-adv-x="832" 
d="M128 0c-36 0 -66.333 12.333 -91 37s-37 55 -37 91v384c-0 35.333 12.333 65.333 37 90c24.667 25.333 55 38 91 38h192v-128h-192v-384h192v-128h-192zM384 0v128h128l-64 128h64v256h-128v128h128c35.333 0 65.333 -12.667 90 -38c25.333 -24.667 38 -54.667 38 -90
v-256l64 -128h-64c0 -36 -12.667 -66.333 -38 -91c-24.667 -24.667 -54.667 -37 -90 -37h-128z" />
    <glyph glyph-name="R" unicode="R" 
d="M0 0v256h128v-256h-128zM256 0l-64 128l-64 128v128h128v128h-128v-128h-128v256h256c35.333 0 65.333 -12.667 90 -38c25.333 -24.667 38 -54.667 38 -90v-128c0 -36 -12.667 -66.333 -38 -91c-24.667 -24.667 -54.667 -37 -90 -37l64 -128l64 -128h-128z" />
    <glyph glyph-name="S" unicode="S" 
d="M0 0v128h256v128h-128c-36 0 -66.333 12.333 -91 37s-37 55 -37 91v128c-0 35.333 12.333 65.333 37 90c24.667 25.333 55 38 91 38h256v-128h-256v-128h128c35.333 0 65.333 -12.667 90 -38c25.333 -24.667 38 -54.667 38 -90v-128c0 -36 -12.667 -66.333 -38 -91
c-24.667 -24.667 -54.667 -37 -90 -37h-256z" />
    <glyph glyph-name="T" unicode="T" horiz-adv-x="768" 
d="M256 0v512h-256v128h384v-640h-128zM448 512v128h192v-128h-192z" />
    <glyph glyph-name="U" unicode="U" horiz-adv-x="640" 
d="M128 0c-36 0 -66.333 12.333 -91 37s-37 55 -37 91v512h128v-512h256v256h128v-256c0 -36 -12.667 -66.333 -38 -91c-24.667 -24.667 -54.667 -37 -90 -37h-256zM384 448v192h128v-192h-128z" />
    <glyph glyph-name="V" unicode="V" horiz-adv-x="896" 
d="M320 0l-64 128l-64 128l-64 128l-64 128l-64 128h128l64 -128l64 -128l64 -128l64 -128l64 128l64 128h128l-64 -128l-64 -128l-64 -128h-128zM576 512l64 128h128l-64 -128h-128z" />
    <glyph glyph-name="W" unicode="W" horiz-adv-x="1536" 
d="M320 0l-64 128l-64 128l-64 128l-64 128l-64 128h128l64 -128l64 -128l64 -128l64 -128l64 128l64 128l64 128h128l64 -128l64 -128l64 -128v-128h-64l-64 128l-64 128l-64 128l-64 -128l-64 -128l-64 -128h-128zM1024 0v128l64 128l64 128l64 128l64 128h128l-64 -128
l-64 -128l-64 -128l-64 -128l-64 -128h-64z" />
    <glyph glyph-name="X" unicode="X" horiz-adv-x="640" 
d="M0 0l64 128l64 128v128l-64 128l-64 128h128l64 -128l64 -128h128v-128l64 -128l64 -128h-128l-64 128l-64 128l-64 -128l-64 -128h-128zM320 512l64 128h128l-64 -128h-128z" />
    <glyph glyph-name="Y" unicode="Y" horiz-adv-x="640" 
d="M192 0v256l-64 128l-64 128l-64 128h128l64 -128l64 -128h128l-64 -128v-256h-128zM320 512l64 128h128l-64 -128h-128z" />
    <glyph glyph-name="Z" unicode="Z" 
d="M256 0v128h128v-128h-128zM0 0l64 128l64 128l64 128l64 128h-256v128h384v-128l-64 -128l-64 -128l-64 -128l-64 -128h-128z" />
    <glyph glyph-name="a" unicode="a" horiz-adv-x="896" 
d="M320 128v128h128v-128h-128zM0 0l64 128l64 128l64 128l64 128l64 128h128l64 -128l64 -128l64 -128l64 -128l64 -128h-128l-64 128l-64 128l-64 128l-64 128l-64 -128l-64 -128l-64 -128l-64 -128h-128z" />
    <glyph glyph-name="b" unicode="b" horiz-adv-x="640" 
d="M384 128v384h-256v-128h192v-128h-192v-128h256zM0 0v640h384c35.333 0 65.333 -12.667 90 -38c25.333 -24.667 38 -54.667 38 -90v-128c0 -18 -6.33301 -33.333 -19 -46c-12.667 -12 -27.667 -18 -45 -18c17.333 0 32.333 -6.33301 45 -19s19 -27.667 19 -45v-128
c0 -36 -12.667 -66.333 -38 -91c-24.667 -24.667 -54.667 -37 -90 -37h-384z" />
    <glyph glyph-name="c" unicode="c" 
d="M128 0c-36 0 -66.333 12.333 -91 37s-37 55 -37 91v128h128v-128h256v-128h-256zM0 384v128c-0 35.333 12.333 65.333 37 90c24.667 25.333 55 38 91 38h256v-128h-256v-128h-128z" />
    <glyph glyph-name="d" unicode="d" 
d="M256 128v384h-128v-384h128zM0 0v640h256c35.333 0 65.333 -12.667 90 -38c25.333 -24.667 38 -54.667 38 -90v-384c0 -36 -12.667 -66.333 -38 -91c-24.667 -24.667 -54.667 -37 -90 -37h-256z" />
    <glyph glyph-name="e" unicode="e" 
d="M0 0v256h128v-128h256v-128h-384zM128 256v128h256v-128h-256zM0 384v256h384v-128h-256v-128h-128z" />
    <glyph glyph-name="f" unicode="f" 
d="M192 256v128h192v-128h-192zM0 0v640h384v-128h-256v-512h-128z" />
    <glyph glyph-name="g" unicode="g" horiz-adv-x="640" 
d="M384 192v64h-128v128h256v-192h-128zM128 0c-36 0 -66.333 12.333 -91 37s-37 55 -37 91v384c-0 35.333 12.333 65.333 37 90c24.667 25.333 55 38 91 38h384v-128h-384v-384h384c0 -36 -12.667 -66.333 -38 -91c-24.667 -24.667 -54.667 -37 -90 -37h-256z" />
    <glyph glyph-name="h" unicode="h" horiz-adv-x="640" 
d="M0 0v640h128v-256h192v-128h-192v-256h-128zM384 0v640h128v-640h-128z" />
    <glyph glyph-name="i" unicode="i" horiz-adv-x="256" 
d="M0 0v640h128v-640h-128z" />
    <glyph glyph-name="j" unicode="j" 
d="M128 0c-36 0 -66.333 12.333 -91 37s-37 55 -37 91v128h128v-128h128v192h128v-192c0 -36 -12.667 -66.333 -38 -91c-24.667 -24.667 -54.667 -37 -90 -37h-128zM256 384v128h-256v128h256c35.333 0 65.333 -12.667 90 -38c25.333 -24.667 38 -54.667 38 -90v-128h-128z
" />
    <glyph glyph-name="k" unicode="k" 
d="M0 0v256h128v-256h-128zM256 0l-64 128l-64 128h128l64 -128l64 -128h-128zM0 384v256h128v-256h-128zM128 384l64 128l64 128h128l-64 -128l-64 -128h-128z" />
    <glyph glyph-name="l" unicode="l" 
d="M0 0v640h128v-512h256v-128h-384z" />
    <glyph glyph-name="m" unicode="m" horiz-adv-x="1152" 
d="M0 0v640h128v-640h-128zM448 128l-64 128l-64 128l-64 128h-64v128h128l64 -128l64 -128l64 -128l64 128l64 128l64 128h128v-128h-64l-64 -128l-64 -128l-64 -128h-128zM896 0v640h128v-640h-128z" />
    <glyph glyph-name="n" unicode="n" horiz-adv-x="768" 
d="M0 0v640h192l64 -128l64 -128l64 -128h64v-256h-64l-64 128l-64 128l-64 128l-64 128v-512h-128zM512 0v640h128v-640h-128z" />
    <glyph glyph-name="o" unicode="o" horiz-adv-x="640" 
d="M384 128v384h-256v-384h256zM128 0c-36 0 -66.333 12.333 -91 37s-37 55 -37 91v384c-0 35.333 12.333 65.333 37 90c24.667 25.333 55 38 91 38h256c35.333 0 65.333 -12.667 90 -38c25.333 -24.667 38 -54.667 38 -90v-384c0 -36 -12.667 -66.333 -38 -91
c-24.667 -24.667 -54.667 -37 -90 -37h-256z" />
    <glyph glyph-name="p" unicode="p" 
d="M0 0v256h128v-256h-128zM128 256v128h128v128h-128v-128h-128v256h256c35.333 0 65.333 -12.667 90 -38c25.333 -24.667 38 -54.667 38 -90v-128c0 -36 -12.667 -66.333 -38 -91c-24.667 -24.667 -54.667 -37 -90 -37h-128z" />
    <glyph glyph-name="q" unicode="q" horiz-adv-x="832" 
d="M128 0c-36 0 -66.333 12.333 -91 37s-37 55 -37 91v384c-0 35.333 12.333 65.333 37 90c24.667 25.333 55 38 91 38h192v-128h-192v-384h192v-128h-192zM384 0v128h128l-64 128h64v256h-128v128h128c35.333 0 65.333 -12.667 90 -38c25.333 -24.667 38 -54.667 38 -90
v-256l64 -128h-64c0 -36 -12.667 -66.333 -38 -91c-24.667 -24.667 -54.667 -37 -90 -37h-128z" />
    <glyph glyph-name="r" unicode="r" 
d="M0 0v256h128v-256h-128zM256 0l-64 128l-64 128v128h128v128h-128v-128h-128v256h256c35.333 0 65.333 -12.667 90 -38c25.333 -24.667 38 -54.667 38 -90v-128c0 -36 -12.667 -66.333 -38 -91c-24.667 -24.667 -54.667 -37 -90 -37l64 -128l64 -128h-128z" />
    <glyph glyph-name="s" unicode="s" 
d="M0 0v128h256v128h-128c-36 0 -66.333 12.333 -91 37s-37 55 -37 91v128c-0 35.333 12.333 65.333 37 90c24.667 25.333 55 38 91 38h256v-128h-256v-128h128c35.333 0 65.333 -12.667 90 -38c25.333 -24.667 38 -54.667 38 -90v-128c0 -36 -12.667 -66.333 -38 -91
c-24.667 -24.667 -54.667 -37 -90 -37h-256z" />
    <glyph glyph-name="t" unicode="t" horiz-adv-x="768" 
d="M256 0v512h-256v128h384v-640h-128zM448 512v128h192v-128h-192z" />
    <glyph glyph-name="u" unicode="u" horiz-adv-x="640" 
d="M128 0c-36 0 -66.333 12.333 -91 37s-37 55 -37 91v512h128v-512h256v256h128v-256c0 -36 -12.667 -66.333 -38 -91c-24.667 -24.667 -54.667 -37 -90 -37h-256zM384 448v192h128v-192h-128z" />
    <glyph glyph-name="v" unicode="v" horiz-adv-x="896" 
d="M320 0l-64 128l-64 128l-64 128l-64 128l-64 128h128l64 -128l64 -128l64 -128l64 -128l64 128l64 128h128l-64 -128l-64 -128l-64 -128h-128zM576 512l64 128h128l-64 -128h-128z" />
    <glyph glyph-name="w" unicode="w" horiz-adv-x="1536" 
d="M320 0l-64 128l-64 128l-64 128l-64 128l-64 128h128l64 -128l64 -128l64 -128l64 -128l64 128l64 128l64 128h128l64 -128l64 -128l64 -128v-128h-64l-64 128l-64 128l-64 128l-64 -128l-64 -128l-64 -128h-128zM1024 0v128l64 128l64 128l64 128l64 128h128l-64 -128
l-64 -128l-64 -128l-64 -128l-64 -128h-64z" />
    <glyph glyph-name="x" unicode="x" horiz-adv-x="640" 
d="M0 0l64 128l64 128v128l-64 128l-64 128h128l64 -128l64 -128h128v-128l64 -128l64 -128h-128l-64 128l-64 128l-64 -128l-64 -128h-128zM320 512l64 128h128l-64 -128h-128z" />
    <glyph glyph-name="y" unicode="y" horiz-adv-x="640" 
d="M192 0v256l-64 128l-64 128l-64 128h128l64 -128l64 -128h128l-64 -128v-256h-128zM320 512l64 128h128l-64 -128h-128z" />
    <glyph glyph-name="z" unicode="z" 
d="M256 0v128h128v-128h-128zM0 0l64 128l64 128l64 128l64 128h-256v128h384v-128l-64 -128l-64 -128l-64 -128l-64 -128h-128z" />
    <glyph glyph-name="Adieresis" unicode="&#xc4;" horiz-adv-x="896" 
d="M320 128v128h128v-128h-128zM0 0l64 128l64 128l64 128l64 128l64 128h128l64 -128l64 -128l64 -128l64 -128l64 -128h-128l-64 128l-64 128l-64 128l-64 128l-64 -128l-64 -128l-64 -128l-64 -128h-128zM128 768v128h128v-128h-128zM512 768v128h128v-128h-128z" />
    <glyph glyph-name="Odieresis" unicode="&#xd6;" horiz-adv-x="640" 
d="M384 128v384h-256v-384h256zM128 0c-36 0 -66.333 12.333 -91 37s-37 55 -37 91v384c-0 35.333 12.333 65.333 37 90c24.667 25.333 55 38 91 38h256c35.333 0 65.333 -12.667 90 -38c25.333 -24.667 38 -54.667 38 -90v-384c0 -36 -12.667 -66.333 -38 -91
c-24.667 -24.667 -54.667 -37 -90 -37h-256zM0 768v128h128v-128h-128zM384 768v128h128v-128h-128z" />
    <glyph glyph-name="Udieresis" unicode="&#xdc;" horiz-adv-x="640" 
d="M128 0c-36 0 -66.333 12.333 -91 37s-37 55 -37 91v512h128v-512h256v256h128v-256c0 -36 -12.667 -66.333 -38 -91c-24.667 -24.667 -54.667 -37 -90 -37h-256zM384 448v192h128v-192h-128zM0 768v128h128v-128h-128zM384 768v128h128v-128h-128z" />
    <glyph glyph-name="adieresis" unicode="&#xe4;" horiz-adv-x="896" 
d="M320 128v128h128v-128h-128zM0 0l64 128l64 128l64 128l64 128l64 128h128l64 -128l64 -128l64 -128l64 -128l64 -128h-128l-64 128l-64 128l-64 128l-64 128l-64 -128l-64 -128l-64 -128l-64 -128h-128zM128 768v128h128v-128h-128zM512 768v128h128v-128h-128z" />
    <glyph glyph-name="odieresis" unicode="&#xf6;" horiz-adv-x="640" 
d="M384 128v384h-256v-384h256zM128 0c-36 0 -66.333 12.333 -91 37s-37 55 -37 91v384c-0 35.333 12.333 65.333 37 90c24.667 25.333 55 38 91 38h256c35.333 0 65.333 -12.667 90 -38c25.333 -24.667 38 -54.667 38 -90v-384c0 -36 -12.667 -66.333 -38 -91
c-24.667 -24.667 -54.667 -37 -90 -37h-256zM0 768v128h128v-128h-128zM384 768v128h128v-128h-128z" />
    <glyph glyph-name="udieresis" unicode="&#xfc;" horiz-adv-x="640" 
d="M128 0c-36 0 -66.333 12.333 -91 37s-37 55 -37 91v512h128v-512h256v256h128v-256c0 -36 -12.667 -66.333 -38 -91c-24.667 -24.667 -54.667 -37 -90 -37h-256zM384 448v192h128v-192h-128zM0 768v128h128v-128h-128zM384 768v128h128v-128h-128z" />
  </font>
</defs>
</svg>
